<svg width="20" height="23" viewBox="0 0 20 23" fill="none" xmlns="http://www.w3.org/2000/svg">
<g clip-path="url(#clip0_105_6896)">
<path d="M17.0112 10.0213C17.0112 6.14973 13.8615 3 9.99008 3C6.11848 3 2.96875 6.14973 2.96875 10.0213C2.96875 11.3969 3.36656 12.7289 4.11914 13.8736L9.99004 23L15.861 13.8736C16.6134 12.7289 17.0112 11.3969 17.0112 10.0213H17.0112ZM14.8802 13.2352L14.8769 13.2405L9.99008 20.8369L5.10316 13.2405L5.0998 13.2352C4.47129 12.2809 4.13895 11.1695 4.13895 10.0213C4.13895 6.795 6.76375 4.1702 9.99012 4.1702C13.2162 4.1702 15.8411 6.795 15.8411 10.0214C15.8411 11.1696 15.5089 12.2809 14.8802 13.2352Z" fill="#718895"/>
<path d="M9.99023 6.51062C8.05434 6.51062 6.47949 8.0855 6.47949 10.0214C6.47949 11.9571 8.05438 13.5319 9.99023 13.5319C11.926 13.5319 13.5008 11.9571 13.5008 10.0214C13.5008 8.08546 11.9259 6.51062 9.99023 6.51062ZM9.99023 12.3618C8.69965 12.3618 7.64969 11.3118 7.64969 10.0214C7.64969 8.73078 8.69965 7.68097 9.99023 7.68097C11.2807 7.68097 12.3306 8.73078 12.3306 10.0214C12.3306 11.3118 11.2807 12.3618 9.99023 12.3618Z" fill="#718895"/>
</g>
<defs>
<clipPath id="clip0_105_6896">
<rect width="20" height="23" fill="white"/>
</clipPath>
</defs>
</svg>
