<svg width="24" height="24" viewBox="0 0 24 24" fill="none" xmlns="http://www.w3.org/2000/svg">
<path d="M11.999 20H20.999M16.375 3.62201C16.7731 3.22392 17.313 3.00027 17.876 3.00027C18.439 3.00027 18.9789 3.22392 19.377 3.62201C19.7751 4.0201 19.9987 4.56003 19.9987 5.12301C19.9987 5.68599 19.7751 6.22592 19.377 6.62401L7.367 18.635C7.1291 18.8729 6.83502 19.0469 6.512 19.141L3.64 19.979C3.55395 20.0041 3.46274 20.0056 3.37591 19.9834C3.28908 19.9611 3.20983 19.9159 3.14645 19.8526C3.08307 19.7892 3.03789 19.7099 3.01564 19.6231C2.9934 19.5363 2.9949 19.4451 3.02 19.359L3.858 16.487C3.95222 16.1643 4.12625 15.8706 4.364 15.633L16.375 3.62201Z" stroke="#181A1B" stroke-linecap="round" stroke-linejoin="round"/>
</svg>
