<svg xmlns="http://www.w3.org/2000/svg" version="1.1" xmlns:xlink="http://www.w3.org/1999/xlink" width="512" height="512" x="0" y="0" viewBox="0 0 24 24" style="enable-background:new 0 0 512 512" xml:space="preserve" class=""><g transform="matrix(1.23,0,0,1.23,-2.7600000000000033,-2.7600000000000033)"><g fill="#231f20"><circle cx="12" cy="12" r="3.25" fill="#000000" opacity="1" data-original="#231f20" class=""></circle><path d="M17.62 6.25c-.07 0-.13.06-.13.13 0 .15.27.15.27 0 0-.07-.06-.13-.13-.13z" fill="#000000" opacity="1" data-original="#231f20" class=""></path><path d="M16 2.25H8C4.83 2.25 2.25 4.83 2.25 8v8c0 3.17 2.58 5.75 5.75 5.75h8c3.17 0 5.75-2.58 5.75-5.75V8c0-3.17-2.58-5.75-5.75-5.75zm-4 14.5c-2.62 0-4.75-2.13-4.75-4.75S9.38 7.25 12 7.25s4.75 2.13 4.75 4.75-2.13 4.75-4.75 4.75zm5.62-9c-.75 0-1.37-.61-1.37-1.37s.61-1.37 1.37-1.37 1.37.61 1.37 1.37-.61 1.37-1.37 1.37z" fill="#000000" opacity="1" data-original="#231f20" class=""></path></g></g></svg>