<svg width="24" height="24" viewBox="0 0 24 24" fill="none" xmlns="http://www.w3.org/2000/svg">
<g filter="url(#filter0_b_312_6698)">
<path d="M9.66602 14.2365L7.44973 16.4527" stroke="#D8E7EF" stroke-width="1.5" stroke-linecap="round" stroke-linejoin="round"/>
<path d="M6.56404 11.1337L12.7696 17.3393L13.5498 16.5592C13.7146 16.3942 13.8301 16.1864 13.8834 15.9593C13.9366 15.7323 13.9255 15.4948 13.8512 15.2737L13.4611 14.0858C13.3868 13.8647 13.3757 13.6273 13.4289 13.4002C13.4821 13.1731 13.5977 12.9654 13.7625 12.8004L15.8724 10.6905L16.3157 11.1337C16.5508 11.3688 16.8697 11.5009 17.2022 11.5009C17.5347 11.5009 17.8536 11.3688 18.0887 11.1337C18.3238 10.8986 18.4559 10.5797 18.4559 10.2472C18.4559 9.91469 18.3238 9.59581 18.0887 9.36069L14.5427 5.81463C14.3075 5.57952 13.9887 5.44743 13.6561 5.44743C13.3236 5.44743 13.0048 5.57952 12.7696 5.81463C12.5345 6.04975 12.4024 6.36864 12.4024 6.70115C12.4024 7.03365 12.5345 7.35254 12.7696 7.58766L13.2129 8.03092L11.103 10.1408C10.938 10.3057 10.7302 10.4212 10.5032 10.4744C10.2761 10.5277 10.0386 10.5165 9.81754 10.4422L8.62962 10.0522C8.40852 9.97786 8.17109 9.96671 7.944 10.02C7.71692 10.0732 7.50919 10.1887 7.34417 10.3536L6.56404 11.1337Z" fill="#D8E7EF"/>
</g>
<defs>
<filter id="filter0_b_312_6698" x="-15" y="-15" width="54" height="54" filterUnits="userSpaceOnUse" color-interpolation-filters="sRGB">
<feFlood flood-opacity="0" result="BackgroundImageFix"/>
<feGaussianBlur in="BackgroundImageFix" stdDeviation="7.5"/>
<feComposite in2="SourceAlpha" operator="in" result="effect1_backgroundBlur_312_6698"/>
<feBlend mode="normal" in="SourceGraphic" in2="effect1_backgroundBlur_312_6698" result="shape"/>
</filter>
</defs>
</svg>
