<svg width="32" height="32" viewBox="0 0 32 32" fill="none" xmlns="http://www.w3.org/2000/svg">
<g filter="url(#filter0_b_215_2990)">
<path d="M13.666 18.2365L11.4497 20.4527" stroke="#D8E7EF" stroke-width="1.5" stroke-linecap="round" stroke-linejoin="round"/>
<path d="M10.5631 15.1337L16.7687 21.3393L17.5488 20.5592C17.7136 20.3942 17.8292 20.1864 17.8824 19.9593C17.9357 19.7323 17.9245 19.4948 17.8502 19.2737L17.4601 18.0858C17.3858 17.8647 17.3747 17.6273 17.4279 17.4002C17.4812 17.1731 17.5967 16.9654 17.7616 16.8004L19.8715 14.6905L20.3147 15.1337C20.5498 15.3688 20.8687 15.5009 21.2012 15.5009C21.5337 15.5009 21.8526 15.3688 22.0877 15.1337C22.3229 14.8986 22.4549 14.5797 22.4549 14.2472C22.4549 13.9147 22.3229 13.5958 22.0877 13.3607L18.5417 9.81463C18.3066 9.57952 17.9877 9.44743 17.6552 9.44743C17.3227 9.44743 17.0038 9.57952 16.7687 9.81463C16.5335 10.0498 16.4015 10.3686 16.4015 10.7011C16.4015 11.0337 16.5335 11.3525 16.7687 11.5877L17.2119 12.0309L15.102 14.1408C14.937 14.3057 14.7293 14.4212 14.5022 14.4744C14.2751 14.5277 14.0377 14.5165 13.8166 14.4422L12.6286 14.0522C12.4075 13.9779 12.1701 13.9667 11.943 14.02C11.7159 14.0732 11.5082 14.1887 11.3432 14.3536L10.5631 15.1337Z" fill="#D8E7EF"/>
</g>
<defs>
<filter id="filter0_b_215_2990" x="-15" y="-15" width="62" height="62" filterUnits="userSpaceOnUse" color-interpolation-filters="sRGB">
<feFlood flood-opacity="0" result="BackgroundImageFix"/>
<feGaussianBlur in="BackgroundImageFix" stdDeviation="7.5"/>
<feComposite in2="SourceAlpha" operator="in" result="effect1_backgroundBlur_215_2990"/>
<feBlend mode="normal" in="SourceGraphic" in2="effect1_backgroundBlur_215_2990" result="shape"/>
</filter>
</defs>
</svg>
