<svg width="24" height="25" viewBox="0 0 24 25" fill="none" xmlns="http://www.w3.org/2000/svg">
<path d="M2 21.5C1.99992 19.9603 2.44413 18.4533 3.27935 17.1599C4.11456 15.8664 5.30527 14.8415 6.7086 14.208C8.11193 13.5745 9.66824 13.3595 11.1908 13.5887C12.7133 13.8178 14.1373 14.4815 15.292 15.5" stroke="#181A1B" stroke-width="1.5" stroke-linecap="round" stroke-linejoin="round"/>
<path d="M10 13.5C12.7614 13.5 15 11.2614 15 8.5C15 5.73858 12.7614 3.5 10 3.5C7.23858 3.5 5 5.73858 5 8.5C5 11.2614 7.23858 13.5 10 13.5Z" stroke="#181A1B" stroke-width="1.5" stroke-linecap="round" stroke-linejoin="round"/>
<path d="M19 16.5V22.5" stroke="#0993DC" stroke-width="1.5" stroke-linecap="round" stroke-linejoin="round"/>
<path d="M22 19.5H16" stroke="#0993DC" stroke-width="1.5" stroke-linecap="round" stroke-linejoin="round"/>
</svg>
